<?xml version="1.0" standalone="no"?>
<!DOCTYPE svg PUBLIC "-//W3C//DTD SVG 20010904//EN"
 "http://www.w3.org/TR/2001/REC-SVG-20010904/DTD/svg10.dtd">
<svg version="1.0" xmlns="http://www.w3.org/2000/svg"
 width="417.000000pt" height="417.000000pt" viewBox="0 0 417.000000 417.000000"
 preserveAspectRatio="xMidYMid meet">
<metadata>
Created by potrace 1.16, written by Peter Selinger 2001-2019
</metadata>
<g transform="translate(0.000000,417.000000) scale(0.100000,-0.100000)"
fill="#000000" stroke="none">
<path d="M1016 3651 c-12 -75 -9 -91 22 -91 43 0 947 -52 950 -54 1 -2 1 -111
0 -242 l-3 -240 -285 42 c-157 24 -301 45 -321 48 l-37 6 -7 -46 c-3 -25 -5
-47 -3 -49 2 -1 150 -24 331 -51 l327 -48 0 -1218 0 -1218 90 0 90 0 0 1206 0
1206 28 -6 c31 -6 552 -83 597 -88 29 -3 30 -1 36 42 4 25 6 46 5 47 -1 1
-150 24 -331 50 l-330 49 -3 253 -2 253 62 -6 c35 -4 234 -15 443 -26 209 -11
401 -22 427 -24 l46 -5 4 61 c2 35 -1 62 -7 64 -5 1 -467 28 -1025 58 -558 31
-1034 57 -1056 60 -41 3 -42 3 -48 -33z"/>
</g>
</svg>
