<?xml version="1.0" standalone="no"?>
<!DOCTYPE svg PUBLIC "-//W3C//DTD SVG 20010904//EN"
 "http://www.w3.org/TR/2001/REC-SVG-20010904/DTD/svg10.dtd">
<svg version="1.0" xmlns="http://www.w3.org/2000/svg"
 width="417.000000pt" height="417.000000pt" viewBox="0 0 417.000000 417.000000"
 preserveAspectRatio="xMidYMid meet">
<metadata>
Created by potrace 1.16, written by Peter Selinger 2001-2019
</metadata>
<g transform="translate(0.000000,417.000000) scale(0.100000,-0.100000)"
fill="#000000" stroke="none">
<path d="M1997 3643 c-4 -3 -7 -334 -7 -735 l0 -728 -732 -2 -733 -3 -3 -87
-3 -88 736 0 735 0 0 -735 0 -735 90 0 90 0 2 732 3 733 733 3 732 2 0 90 0
90 -735 0 -735 0 0 735 0 735 -83 0 c-46 0 -87 -3 -90 -7z"/>
</g>
</svg>
