<svg xmlns="http://www.w3.org/2000/svg" viewBox="0 0 425.2 425.2"><defs><style>.cls-1{fill:#c8e7f4;}.cls-2{fill:#9eb6bb;}.cls-3{fill:#ea749b;}.cls-4{fill:#afaeae;}.cls-5{fill:#67a3d9;}.cls-6{fill:#ce6a93;}.cls-7{opacity:0.9;}.cls-8{fill:#fff;}.cls-9{fill:#9b5473;}.cls-10{fill:none;}.cls-11{fill:#1d1d1b;}</style></defs><g id="background"><rect class="cls-1" width="425.2" height="425.2"/></g><g id="Layer_5" data-name="Layer 5"><ellipse class="cls-2" cx="201.83" cy="241.04" rx="53.54" ry="3.46"/><path class="cls-2" d="M273.08,222.69l-6.52,19.61c-.14.42-1.11.14-2.19-.64l-1.94-1.38c-1.15-.83-2-1.89-1.85-2.33l6.54-19.66a1.76,1.76,0,0,1,.43-.72c.75-.78,3.81-2.75,2.68-8.09a1.56,1.56,0,0,1,.12-.91l2.2-6.63.07-.29c0-.21-.2-.61-.65-1a3.12,3.12,0,0,0-1-.62c-1-.33-2.41-.76-2.41-.76a4.41,4.41,0,0,1-2-1.51c-1-1.28.9-2.25.9-2.25,1.32-.58,3.95.51,3.95.51a14.56,14.56,0,0,1,4.7,3.26,10.28,10.28,0,0,1,2.8,4.66,2,2,0,0,1,0,1.12l-2.76,8.4a1.92,1.92,0,0,1-.36.64,8,8,0,0,0-2.62,7.61A2,2,0,0,1,273.08,222.69Z" transform="translate(0 0)"/></g><g id="Layer_1" data-name="Layer 1"><path class="cls-3" d="M180.28,127.77a59.68,59.68,0,0,0-23.76,17.37l2.95,0C160.42,144.67,170.58,139.77,180.28,127.77Z" transform="translate(0 0)"/><path class="cls-3" d="M222.38,140.06c.74-2.46,1.39-4.73,2-6.78-13.4,11.14-47.77,12.91-68.24,12.91h-.4a59.81,59.81,0,0,0-5.71,8.67C173.36,154.54,211.71,152.11,222.38,140.06Z" transform="translate(0 0)"/><path class="cls-3" d="M161.71,145.08c2.95-.05,6.09-.14,9.34-.3,1.28-.88,10.23-7.26,20.64-20.3a58.28,58.28,0,0,0-9.58,2.57A68.68,68.68,0,0,1,161.71,145.08Z" transform="translate(0 0)"/><path class="cls-3" d="M172.88,144.69c4.32-.22,8.79-.56,13.24-1,1.37-1.15,11.72-10.11,17.12-20.14l-.88,0a59.22,59.22,0,0,0-9.18.71A113.17,113.17,0,0,1,172.88,144.69Z" transform="translate(0 0)"/><path class="cls-3" d="M189.59,184.38c-2.72.2-5.52.31-8.36.36A78.18,78.18,0,0,1,164,219.09q3.78.57,7.73.8C173.39,218,186.88,202.54,189.59,184.38Z" transform="translate(0 0)"/><path class="cls-3" d="M187.88,143.46c4.15-.47,8.25-1.08,12.17-1.84,1.08-1.05,8.7-8.61,12.54-17.22a58.54,58.54,0,0,0-8.22-.85C199.7,132.54,191.14,140.59,187.88,143.46Z" transform="translate(0 0)"/><path class="cls-3" d="M217.86,154.26c1.49-4.37,2.79-8.47,3.92-12.19-12.66,11.41-49.75,13.62-72.34,13.85a61.34,61.34,0,0,0-2.84,6.42C169.28,163.22,204.68,163,217.86,154.26Z" transform="translate(0 0)"/><path class="cls-3" d="M213.41,166.62c1.42-3.75,2.73-7.38,3.93-10.86-10.92,6.39-33.54,8-53.5,8-6.28,0-12.29-.16-17.6-.37a59.37,59.37,0,0,0-2.07,7.42C164,173.07,193.47,174.47,213.41,166.62Z" transform="translate(0 0)"/><path class="cls-3" d="M207.87,180.27c1.82-4.21,3.51-8.37,5.06-12.4-11.41,4.29-25.73,5.7-39.58,5.7A261.06,261.06,0,0,1,144,171.78a60.1,60.1,0,0,0-1,9.74C162.7,183.83,190.92,185.65,207.87,180.27Z" transform="translate(0 0)"/><path class="cls-3" d="M258.42,202.71a59.26,59.26,0,0,0,2.15-7.65,43.73,43.73,0,0,1-14.77-4.24C249.66,197.49,256.29,201.54,258.42,202.71Z" transform="translate(0 0)"/><path class="cls-3" d="M242.92,188a40.87,40.87,0,0,0,17.83,6,58.7,58.7,0,0,0,.92-7.18c-9.93-.67-14.82-4-16.4-5.35Q244.16,184.75,242.92,188Z" transform="translate(0 0)"/><path class="cls-3" d="M215.76,137.11a29.94,29.94,0,0,0,5.3-10.58,58.06,58.06,0,0,0-7.44-2c-3.24,7.45-9.21,14-11.79,16.68A76.12,76.12,0,0,0,215.76,137.11Z" transform="translate(0 0)"/><path class="cls-3" d="M187.15,219c1.2-2.63,11.87-26.37,10.71-35.54-2.33.35-4.75.61-7.25.81C188.13,201.53,176.07,216.38,173,220A66.8,66.8,0,0,0,187.15,219Z" transform="translate(0 0)"/><path class="cls-3" d="M245.63,180.52c1,.91,5.74,4.67,16.11,5.38.05-1,.07-2,.07-3,0-1.48-.07-2.94-.18-4.39-8.39-.24-12.47-3-13.89-4.3C247.06,176.32,246.36,178.4,245.63,180.52Z" transform="translate(0 0)"/><path class="cls-3" d="M224.82,131.49c.32-1.16.6-2.24.86-3.23-1.2-.51-2.42-1-3.66-1.41a32.33,32.33,0,0,1-4.36,9.41A26.83,26.83,0,0,0,224.82,131.49Z" transform="translate(0 0)"/><path class="cls-3" d="M254.25,154l-.52,1.6a18.34,18.34,0,0,0,1.81.84C255.13,155.59,254.7,154.78,254.25,154Z" transform="translate(0 0)"/><path class="cls-3" d="M250.65,165.16c-.83,2.64-1.68,5.32-2.57,8.05.83.82,4.64,4,13.48,4.35a59.48,59.48,0,0,0-1.59-9.32,31.41,31.41,0,0,1-9.26-3.27Z" transform="translate(0 0)"/><path class="cls-3" d="M253.22,157.14q-1.09,3.38-2.2,6.86a32,32,0,0,0,8.64,3.14,59.7,59.7,0,0,0-3.47-9.4,21.21,21.21,0,0,1-2.78-1.19C253.35,156.75,253.29,156.94,253.22,157.14Z" transform="translate(0 0)"/><path class="cls-3" d="M173.86,184.74c-6.07,18.38-15.14,30.06-17.48,32.88,2.07.49,4.21.93,6.4,1.29a76.68,76.68,0,0,0,17.42-34.15l-2.45,0C176.46,184.78,175.16,184.76,173.86,184.74Z" transform="translate(0 0)"/><path class="cls-3" d="M233.33,222.42a62.59,62.59,0,0,0,7.51.41c-2-1.33-5-4.52-7.83-12.12-.89,1.78-1.83,3.58-2.81,5.42C231.12,220.19,232.88,222,233.33,222.42Z" transform="translate(0 0)"/><path class="cls-3" d="M243,223.79h0c-.82,0-1.62.05-2.39.05a57.83,57.83,0,0,1-13.77-1.55l-.18.31c-.17.31-.36.62-.53.93-1.39,2.37-2.85,4.8-4.4,7.28,2.82.31,10.54,1,15.81,0a60,60,0,0,0,6.11-5.14l1-.94,1.09-1.14q-1.38.1-2.7.15Z" transform="translate(0 0)"/><path class="cls-3" d="M236.8,202.79l-.13.3c-1,2.09-2,4.22-3,6.39,4.3,12,8.95,13.21,9.41,13.3,1.17,0,2.38-.13,3.63-.25a60.51,60.51,0,0,0,4-5C248.41,216.56,242,213.06,236.8,202.79Z" transform="translate(0 0)"/><path class="cls-3" d="M227.3,221.37c.77.19,2.33.54,4.51.85a13.92,13.92,0,0,1-2.31-4.79C228.79,218.73,228.06,220.05,227.3,221.37Z" transform="translate(0 0)"/><path class="cls-3" d="M221.09,231.74c-.09.13-.18.27-.26.41-.71,1.11-1.43,2.23-2.17,3.36-.18.28-.36.56-.55.84-1,1.54-2.07,3.11-3.16,4.69a58.57,58.57,0,0,0,10.93-3.51c.65-.28,1.3-.57,1.94-.87a59.69,59.69,0,0,0,7.47-4.25l.45-.31a46.18,46.18,0,0,1-4.9.25A87.73,87.73,0,0,1,221.09,231.74Z" transform="translate(0 0)"/><path class="cls-3" d="M198.85,183.35c.92,7.14-4.84,22.2-8.35,30.53a253.83,253.83,0,0,0,16.85-32.4A67.62,67.62,0,0,1,198.85,183.35Z" transform="translate(0 0)"/><path class="cls-3" d="M240,195.36l-.39.92c-.74,1.77-1.51,3.57-2.33,5.39l0,0c5.26,10.79,12,14.24,13.92,15q1.65-2.38,3.08-4.93l.2-.37A35.48,35.48,0,0,1,240,195.36Z" transform="translate(0 0)"/><path class="cls-3" d="M258.07,203.67c-2.23-1.2-9.92-5.77-13.85-13.68-.73-.4-1.3-.75-1.67-1-.63,1.66-1.3,3.36-2,5.07A34.46,34.46,0,0,0,255,210.5,59,59,0,0,0,258,204C258,203.87,258,203.77,258.07,203.67Z" transform="translate(0 0)"/><path class="cls-4" d="M311.09,145.34a11.94,11.94,0,0,0-6.31,3.15c-1.95,2-3.92,4.8-3.69,5.78a1,1,0,0,0,.41.69,1.15,1.15,0,0,0,.78.1c.06,0,2.23-.64,3.65-.94a2,2,0,0,1,.48-.06,1.91,1.91,0,0,1,1.43.62,2.23,2.23,0,0,1,.27,2.54l-.4.77L296.9,176.81a9.93,9.93,0,0,0-.95,2c-3,10.48-9.25,18.16-12.26,21.84l-.9,1.12a19.06,19.06,0,0,0-1.44,2.14l-31.68,55.16a1.75,1.75,0,0,0-.16,1.38,1.73,1.73,0,0,0,.89,1.07l2.13,1.11a1.77,1.77,0,0,0,2.35-.69l31.61-55a12.79,12.79,0,0,0,1.14-2.37c3.07-9.54,8.85-16.94,11.63-20.49l.92-1.2a18.08,18.08,0,0,0,1.24-1.89l13.48-23.51a10.32,10.32,0,0,0,1-2.5c.48-1.94,1.08-5.49-.3-7.41A4.71,4.71,0,0,0,311.09,145.34Z" transform="translate(0 0)"/><path class="cls-3" d="M147.86,183.07a36.86,36.86,0,0,1-3.92,10.83,59.37,59.37,0,0,0,2.95,10.38,52.89,52.89,0,0,0,10.47-20.35C154.09,183.68,150.91,183.38,147.86,183.07Z" transform="translate(0 0)"/><path class="cls-3" d="M172.81,184.72q-3.66-.09-7.31-.27a73,73,0,0,1-14.34,28.66c.78,1.3,1.6,2.58,2.47,3.82l1.66.43C156.84,215.55,166.43,203.84,172.81,184.72Z" transform="translate(0 0)"/><path class="cls-3" d="M158.37,184a54,54,0,0,1-11.06,21.34,58.32,58.32,0,0,0,3.32,6.84,72,72,0,0,0,13.85-27.78Q161.39,184.22,158.37,184Z" transform="translate(0 0)"/><path class="cls-3" d="M142.93,182.52c0,.14,0,.28,0,.43a58.67,58.67,0,0,0,.74,9.34,35.26,35.26,0,0,0,3.21-9.33C145.52,182.82,144.21,182.67,142.93,182.52Z" transform="translate(0 0)"/><path class="cls-3" d="M179.25,229.87h-.33a88.47,88.47,0,0,1-15-1.6l.28.24a60.71,60.71,0,0,0,8.93,6.19l1.3.72.09.05.09-.1,1.31-1.5C177.07,232.56,178.17,231.22,179.25,229.87Z" transform="translate(0 0)"/><path class="cls-3" d="M244.77,141.33a60.41,60.41,0,0,0-9.24-7.7C231,152.32,215.8,206.3,183.38,239.27A58.84,58.84,0,0,0,195,241.92l-.13-.15C224.63,216.59,240.07,161.05,244.77,141.33Z" transform="translate(0 0)"/><path class="cls-3" d="M226.6,128.68c-4.26,16.39-16.54,58-38.6,90.9l-.25.36a152.84,152.84,0,0,1-12.28,16,60.66,60.66,0,0,0,6.86,3c32.69-33,47.93-87.51,52.31-105.85A59.43,59.43,0,0,0,226.6,128.68Z" transform="translate(0 0)"/><path class="cls-3" d="M180,228.85c.6-.76,1.2-1.51,1.78-2.29l1.3-1.74q1.68-2.3,3.28-4.66a66.22,66.22,0,0,1-10.63.85,86.38,86.38,0,0,1-21.24-2.82,59.58,59.58,0,0,0,7.94,8.77C165.33,227.54,173.42,229,180,228.85Z" transform="translate(0 0)"/><path class="cls-3" d="M252.27,156.83c.47-1.43.9-2.77,1.3-4a59.46,59.46,0,0,0-8-10.6c-4.87,20.21-20.22,74.55-49.53,99.86a59.78,59.78,0,0,0,17.48-.73c22-31.77,29.52-55.5,36.16-76.47C250.56,162.13,251.41,159.46,252.27,156.83Z" transform="translate(0 0)"/><path class="cls-3" d="M310.86,143.87a13,13,0,0,0-7.15,3.57c-.77.79-4.61,4.89-4.09,7.17a2.48,2.48,0,0,0,1.11,1.64,2.69,2.69,0,0,0,1.94.26s2.2-.64,3.57-.93c.33-.07.44.06.48.11a.73.73,0,0,1,.07.83l-11.18,19.54a10.54,10.54,0,0,0-1.1,2.32c-2.91,10.18-9,17.7-12,21.31-.37.44-.68.83-.92,1.14a18.71,18.71,0,0,0-1.56,2.31L248.37,258.3a3.28,3.28,0,0,0,1.34,4.54l2.13,1.1a3.26,3.26,0,0,0,4.34-1.27l31.61-55a13.79,13.79,0,0,0,1.27-2.66c3-9.29,8.65-16.54,11.38-20l.94-1.21a22.63,22.63,0,0,0,1.35-2l13.47-23.52a11.36,11.36,0,0,0,1.16-2.88c.67-2.68,1.11-6.36-.54-8.65A6.11,6.11,0,0,0,310.86,143.87Zm5.05,11a10.32,10.32,0,0,1-1,2.5l-13.48,23.51a18.08,18.08,0,0,1-1.24,1.89l-.92,1.2c-2.78,3.55-8.56,10.95-11.63,20.49a12.79,12.79,0,0,1-1.14,2.37l-31.61,55a1.77,1.77,0,0,1-2.35.69l-2.13-1.11a1.73,1.73,0,0,1-.89-1.07,1.75,1.75,0,0,1,.16-1.38l31.68-55.16a19.06,19.06,0,0,1,1.44-2.14l.9-1.12c3-3.68,9.27-11.36,12.26-21.84a9.93,9.93,0,0,1,.95-2L307.71,158l.4-.77a2.23,2.23,0,0,0-.27-2.54,1.91,1.91,0,0,0-1.43-.62,2,2,0,0,0-.48.06c-1.42.3-3.59.92-3.65.94a1.15,1.15,0,0,1-.78-.1,1,1,0,0,1-.41-.69c-.23-1,1.74-3.77,3.69-5.78a11.94,11.94,0,0,1,6.31-3.15,4.71,4.71,0,0,1,4.52,2.17C317,149.43,316.39,153,315.91,154.92Z" transform="translate(0 0)"/><path class="cls-3" d="M256.56,210.77a59.61,59.61,0,0,0,2.94-6.63c.12-.32.23-.64.35-1a59,59,0,0,0,2.22-8c.07-.33.12-.66.18-1a59.51,59.51,0,0,0,.91-7.23c0-.33.06-.66.07-1,0-1,.08-2,.08-3,0-1.47-.07-2.93-.17-4.37,0-.34-.05-.67-.08-1a60.41,60.41,0,0,0-1.5-9.1c-.09-.36-.17-.71-.26-1.06a60.88,60.88,0,0,0-3.19-9.07l-.55-1.21q-1.23-2.61-2.69-5.09l-.69-1.14A61.73,61.73,0,0,0,246,140.46c-.27-.29-.55-.57-.83-.85a61,61,0,0,0-9.27-7.52c-.3-.2-.6-.38-.89-.58a62.43,62.43,0,0,0-8-4.3c-.31-.14-.61-.29-.92-.42-1.2-.51-2.42-1-3.65-1.39l-1-.32a58.67,58.67,0,0,0-7.26-1.92c-.33-.07-.67-.12-1-.18a59.8,59.8,0,0,0-8.08-.91l-1.1,0c-.55,0-1.09,0-1.64,0a62.08,62.08,0,0,0-7.88.52l-1.4.18a60.74,60.74,0,0,0-9.38,2.23l-1.66.56a60.87,60.87,0,0,0-15,7.85,62.35,62.35,0,0,0-6.7,5.54,61.62,61.62,0,0,0-5.71,6.26l-.82,1a60.33,60.33,0,0,0-5.5,8.71q-.28.51-.54,1.05a60.46,60.46,0,0,0-2.72,6.34c-.12.34-.23.69-.35,1a59.88,59.88,0,0,0-2,7.32c-.07.32-.12.65-.18,1a60.1,60.1,0,0,0-1,9.74c0,.33,0,.66,0,1s0,.4,0,.6a61.21,61.21,0,0,0,1.09,11.48l.3,1.46a60.9,60.9,0,0,0,3,9.7c.14.35.27.7.42,1a59.47,59.47,0,0,0,3.4,6.77c.17.3.34.61.52.91.41.67.83,1.33,1.27,2,.28.43.57.86.86,1.28a61.73,61.73,0,0,0,7.81,9.18c.47.45.94.91,1.42,1.35a61.14,61.14,0,0,0,9.29,6.93c.47.29,1,.56,1.44.84l1.29.73.92.47a61.14,61.14,0,0,0,6.71,3l1.05.37a60.72,60.72,0,0,0,20.17,3.44,61.51,61.51,0,0,0,11.1-1l.26-.05a60.62,60.62,0,0,0,15.35-5.1c.61-.3,1.21-.61,1.81-.93a61.08,61.08,0,0,0,6.82-4.23c.43-.31.85-.6,1.27-.92a60.28,60.28,0,0,0,6.65-5.81c.32-.31.62-.64.92-1a61.37,61.37,0,0,0,9.5-13.08C256.22,211.46,256.39,211.11,256.56,210.77Zm1.86-8.06c-2.13-1.17-8.76-5.22-12.62-11.89a43.73,43.73,0,0,0,14.77,4.24A59.26,59.26,0,0,1,258.42,202.71Zm2.33-8.63a40.87,40.87,0,0,1-17.83-6q1.25-3.3,2.35-6.49c1.58,1.33,6.47,4.68,16.4,5.35A58.7,58.7,0,0,1,260.75,194.08Zm.88-15.52c.11,1.45.18,2.91.18,4.39,0,1,0,2-.07,3-10.37-.71-15.11-4.47-16.11-5.38.73-2.12,1.43-4.2,2.11-6.26C249.16,175.53,253.24,178.32,261.63,178.56Zm-.07-1c-8.84-.3-12.65-3.53-13.48-4.35.89-2.73,1.74-5.41,2.57-8.05l.06-.19a31.41,31.41,0,0,0,9.26,3.27A59.48,59.48,0,0,1,261.56,177.56Zm-1.9-10.42A32,32,0,0,1,251,164q1.11-3.48,2.2-6.86c.07-.2.13-.39.19-.59a21.21,21.21,0,0,0,2.78,1.19A59.7,59.7,0,0,1,259.66,167.14ZM254.25,154c.45.8.88,1.61,1.29,2.44a18.34,18.34,0,0,1-1.81-.84ZM222,126.85c1.24.44,2.46.9,3.66,1.41-.26,1-.54,2.07-.86,3.23a26.83,26.83,0,0,1-7.16,4.77A32.33,32.33,0,0,0,222,126.85Zm-8.4-2.27a58.06,58.06,0,0,1,7.44,2,29.94,29.94,0,0,1-5.3,10.58,76.12,76.12,0,0,1-13.93,4.15C204.41,138.62,210.38,132,213.62,124.58Zm-9.25-1a58.54,58.54,0,0,1,8.22.85c-3.84,8.61-11.46,16.17-12.54,17.22-3.92.76-8,1.37-12.17,1.84C191.14,140.59,199.7,132.54,204.37,123.55Zm-11.19.66a59.22,59.22,0,0,1,9.18-.71l.88,0c-5.4,10-15.75,19-17.12,20.14-4.45.47-8.92.81-13.24,1A113.17,113.17,0,0,0,193.18,124.21Zm-11.07,2.84a58.28,58.28,0,0,1,9.58-2.57c-10.41,13-19.36,19.42-20.64,20.3-3.25.16-6.39.25-9.34.3A68.68,68.68,0,0,0,182.11,127.05Zm-1.83.72c-9.7,12-19.86,16.9-20.81,17.35l-2.95,0A59.68,59.68,0,0,1,180.28,127.77Zm-24.59,18.42h.4c20.47,0,54.84-1.77,68.24-12.91-.56,2.05-1.21,4.32-2,6.78-10.67,12.05-49,14.48-72.4,14.8A59.81,59.81,0,0,1,155.69,146.19Zm-6.25,9.73c22.59-.23,59.68-2.44,72.34-13.85-1.13,3.72-2.43,7.82-3.92,12.19-13.18,8.75-48.58,9-71.26,8.08A61.34,61.34,0,0,1,149.44,155.92Zm-3.2,7.46c5.31.21,11.32.37,17.6.37,20,0,42.58-1.6,53.5-8-1.2,3.48-2.51,7.11-3.93,10.86-19.94,7.85-49.42,6.45-69.24,4.18A59.37,59.37,0,0,1,146.24,163.38Zm-2.26,8.4a261.06,261.06,0,0,0,29.37,1.79c13.85,0,28.17-1.41,39.58-5.7-1.55,4-3.24,8.19-5.06,12.4-17,5.38-45.17,3.56-64.92,1.25A60.1,60.1,0,0,1,144,171.78Zm37.25,13c2.84-.05,5.64-.16,8.36-.36-2.71,18.16-16.2,33.63-17.89,35.51q-3.94-.22-7.73-.8A78.18,78.18,0,0,0,181.23,184.74Zm-18.45,34.17c-2.19-.36-4.33-.8-6.4-1.29,2.34-2.82,11.41-14.5,17.48-32.88,1.3,0,2.6,0,3.89,0l2.45,0A76.68,76.68,0,0,1,162.78,218.91Zm27.83-34.6c2.5-.2,4.92-.46,7.25-.81,1.16,9.17-9.51,32.91-10.71,35.54A66.8,66.8,0,0,1,173,220C176.07,216.38,188.13,201.53,190.61,184.31Zm8.24-1a67.62,67.62,0,0,0,8.5-1.87,253.83,253.83,0,0,1-16.85,32.4C194,205.55,199.77,190.49,198.85,183.35Zm-55.93-.4c0-.15,0-.29,0-.43,1.28.15,2.59.3,3.94.44a35.26,35.26,0,0,1-3.21,9.33A58.67,58.67,0,0,1,142.92,183Zm1,11a36.86,36.86,0,0,0,3.92-10.83c3,.31,6.23.61,9.5.86a52.89,52.89,0,0,1-10.47,20.35A59.37,59.37,0,0,1,143.94,193.9Zm3.37,11.44A54,54,0,0,0,158.37,184q3,.23,6.11.4a72,72,0,0,1-13.85,27.78A58.32,58.32,0,0,1,147.31,205.34Zm3.85,7.77a73,73,0,0,0,14.34-28.66q3.65.18,7.31.27c-6.38,19.12-16,30.83-17.52,32.64l-1.66-.43C152.76,215.69,151.94,214.41,151.16,213.11Zm3.37,5.08A86.38,86.38,0,0,0,175.77,221a66.22,66.22,0,0,0,10.63-.85q-1.6,2.37-3.28,4.66l-1.3,1.74c-.58.78-1.18,1.53-1.78,2.29-6.62.19-14.71-1.31-17.57-1.89A59.58,59.58,0,0,1,154.53,218.19Zm20,17.28-.09-.05-1.3-.72a60.71,60.71,0,0,1-8.93-6.19l-.28-.24a88.47,88.47,0,0,0,15,1.6h.33c-1.08,1.35-2.18,2.69-3.3,4l-1.31,1.5Zm.92.47a152.84,152.84,0,0,0,12.28-16l.25-.36c22.06-32.93,34.34-74.51,38.6-90.9a59.43,59.43,0,0,1,8,4.38C230.26,151.4,215,206,182.33,238.91A60.66,60.66,0,0,1,175.47,235.94Zm7.91,3.33c32.42-33,47.66-87,52.15-105.64a60.41,60.41,0,0,1,9.24,7.7c-4.7,19.72-20.14,75.26-49.91,100.44l.13.15A58.84,58.84,0,0,1,183.38,239.27Zm30.16,2.06a59.78,59.78,0,0,1-17.48.73c29.31-25.31,44.66-79.65,49.53-99.86a59.46,59.46,0,0,1,8,10.6c-.4,1.26-.83,2.6-1.3,4-.86,2.63-1.71,5.3-2.57,8C243.06,185.83,235.53,209.56,213.54,241.33Zm16.66-25.2c1-1.84,1.92-3.64,2.81-5.42,2.87,7.6,5.88,10.79,7.83,12.12a62.59,62.59,0,0,1-7.51-.41C232.88,222,231.12,220.19,230.2,216.13Zm1.61,6.09c-2.18-.31-3.74-.66-4.51-.85.76-1.32,1.49-2.64,2.2-3.94A13.92,13.92,0,0,0,231.81,222.22Zm3.48,10.19a59.69,59.69,0,0,1-7.47,4.25c-.64.3-1.29.59-1.94.87A58.57,58.57,0,0,1,215,241c1.09-1.58,2.14-3.15,3.16-4.69.19-.28.37-.56.55-.84.74-1.13,1.46-2.25,2.17-3.36.08-.14.17-.28.26-.41a87.73,87.73,0,0,0,9.75.61,46.18,46.18,0,0,0,4.9-.25Zm9.28-7.64-1,.94a60,60,0,0,1-6.11,5.14c-5.27,1-13,.26-15.81,0,1.55-2.48,3-4.91,4.4-7.28.17-.31.36-.62.53-.93l.18-.31a57.83,57.83,0,0,0,13.77,1.55c.77,0,1.57,0,2.39-.05h0q1.32,0,2.7-.15Zm2.09-2.24c-1.25.12-2.46.21-3.63.25-.46-.09-5.11-1.33-9.41-13.3,1.08-2.17,2.09-4.3,3-6.39l.13-.3c5.22,10.27,11.61,13.77,13.87,14.74A60.51,60.51,0,0,1,246.66,222.53Zm7.69-10.78q-1.42,2.55-3.08,4.93c-1.9-.79-8.66-4.24-13.92-15l0,0c.82-1.82,1.59-3.62,2.33-5.39l.39-.92a35.48,35.48,0,0,0,14.52,16Zm-13.8-17.68c.7-1.71,1.37-3.41,2-5.07.37.24.94.59,1.67,1,3.93,7.91,11.62,12.48,13.85,13.68,0,.1-.07.2-.11.3A59,59,0,0,1,255,210.5,34.46,34.46,0,0,1,240.55,194.07Z" transform="translate(0 0)"/><path class="cls-5" d="M122.83,301.91l1.43-1.51a12.39,12.39,0,0,0,9.28,4.27c4.83,0,7.87-2.58,7.87-6.35,0-3.95-2.58-5.21-5.69-6.61l-4.8-2.15c-2.75-1.22-6.42-3.19-6.42-7.87s3.94-7.8,9.2-7.8a12.14,12.14,0,0,1,8.82,3.79l-1.28,1.47a10.1,10.1,0,0,0-7.54-3.25c-4.17,0-7,2.23-7,5.65,0,3.7,3.16,5.09,5.47,6.11l4.79,2.13c3.54,1.58,6.66,3.54,6.66,8.37s-4,8.52-10.12,8.52A13.91,13.91,0,0,1,122.83,301.91Z" transform="translate(0 0)"/><path class="cls-5" d="M150.28,274.47h17.31v1.9h-15.1v12h12.68v1.9H152.49V304.2h15.58v1.9H150.28Z" transform="translate(0 0)"/><path class="cls-5" d="M175,274.47h2.21V304.2h14.57v1.9H175Z" transform="translate(0 0)"/><path class="cls-5" d="M197.42,274.47h17.31v1.9H199.62v12h12.69v1.9H199.62V304.2h15.59v1.9H197.42Z" transform="translate(0 0)"/><path class="cls-5" d="M220.1,290.22c0-10,5.47-16.33,13.52-16.33a10.92,10.92,0,0,1,8.23,3.79l-1.3,1.47a9,9,0,0,0-6.91-3.25c-6.93,0-11.23,5.52-11.23,14.3s4.25,14.47,11.05,14.47c3.26,0,5.7-1.33,8-3.89l1.3,1.38a11.73,11.73,0,0,1-9.41,4.52C225.54,306.68,220.1,300.28,220.1,290.22Z" transform="translate(0 0)"/><path class="cls-5" d="M249.21,274.47h9c6.29,0,10.41,2.3,10.41,8.35,0,5.77-4.12,8.76-10.41,8.76h-6.83V306.1h-2.21Zm8.46,15.24c5.6,0,8.71-2.21,8.71-6.89s-3.11-6.49-8.71-6.49h-6.25v13.38Zm.09,1.22,2.11-.63,9.39,15.8H266.7Z" transform="translate(0 0)"/><path class="cls-5" d="M273.28,290.19c0-10,5.43-16.3,13-16.3s13,6.29,13,16.3-5.43,16.49-13,16.49S273.28,300.2,273.28,290.19Zm23.75,0c0-8.78-4.3-14.29-10.72-14.29s-10.71,5.51-10.71,14.29,4.29,14.48,10.71,14.48S297,299,297,290.19Z" transform="translate(0 0)"/></g><g id="Layer_6" data-name="Layer 6"><path class="cls-6" d="M207.35,242.49l-10,.35-13.68-2.51L173.63,236l-9.15-6L158.55,224l-4-4L152,215.59l-4.16-7.3-2.29-5.71-3.13-11.87s-.29-7-.26-7.21.4-10.49.4-10.49l3.43-11.8,2.56-6,4.07-6.06S162.23,213.45,207.35,242.49Z" transform="translate(0 0)"/></g><g id="Layer_3" data-name="Layer 3"><g class="cls-7"><path class="cls-8" d="M311.12,147.94a7,7,0,0,1,1.81,1,3.15,3.15,0,0,1,.8,1.89,6.56,6.56,0,0,1-.13,2.34,6.4,6.4,0,0,1-.31,1.14,9.05,9.05,0,0,0-.4,1.14c-.3,1.25,1.62,1.78,1.93.53a12,12,0,0,1,.45-1.27,9.14,9.14,0,0,0,.32-1.3,8.89,8.89,0,0,0,.06-3.17,4.8,4.8,0,0,0-1.22-2.62,7.72,7.72,0,0,0-2.3-1.43,1,1,0,0,0-1,1.73Z" transform="translate(0 0)"/></g><path class="cls-9" d="M192.86,241.63s-54.91-5.82-50.17-71C142.69,170.61,154.38,223.74,192.86,241.63Z" transform="translate(0 0)"/><g class="cls-7"><path class="cls-8" d="M223.55,135.3c3.28,1.16,6.09,4,8.58,6.33a76.76,76.76,0,0,1,7.24,7.84,73.07,73.07,0,0,1,10.69,18.36,2.57,2.57,0,0,0,3.07,1.74,2.52,2.52,0,0,0,1.75-3.07,80.53,80.53,0,0,0-12-20.56,75.14,75.14,0,0,0-7.84-8.41c-3-2.79-6.25-5.67-10.18-7.06a2.53,2.53,0,0,0-3.08,1.75,2.56,2.56,0,0,0,1.75,3.08Z" transform="translate(0 0)"/></g></g><g id="Layer_1_copy" data-name="Layer 1 copy"><path class="cls-10" d="M180.28,127.77a59.68,59.68,0,0,0-23.76,17.37l2.95,0C160.42,144.67,170.58,139.77,180.28,127.77Z" transform="translate(0 0)"/><path class="cls-10" d="M161.71,145.08c2.95-.05,6.09-.14,9.34-.3,1.28-.88,10.23-7.26,20.64-20.3a58.28,58.28,0,0,0-9.58,2.57A68.68,68.68,0,0,1,161.71,145.08Z" transform="translate(0 0)"/><path class="cls-10" d="M187.88,143.46c4.15-.47,8.25-1.08,12.17-1.84,1.08-1.05,8.7-8.61,12.54-17.22a58.54,58.54,0,0,0-8.22-.85C199.7,132.54,191.14,140.59,187.88,143.46Z" transform="translate(0 0)"/><path class="cls-10" d="M222.38,140.06c.74-2.46,1.39-4.73,2-6.78-13.4,11.14-47.77,12.91-68.24,12.91h-.4a59.81,59.81,0,0,0-5.71,8.67C173.36,154.54,211.71,152.11,222.38,140.06Z" transform="translate(0 0)"/><path class="cls-10" d="M172.88,144.69c4.32-.22,8.79-.56,13.24-1,1.37-1.15,11.72-10.11,17.12-20.14l-.88,0a59.22,59.22,0,0,0-9.18.71A113.17,113.17,0,0,1,172.88,144.69Z" transform="translate(0 0)"/><path class="cls-10" d="M207.87,180.27c1.82-4.21,3.51-8.37,5.06-12.4-11.41,4.29-25.73,5.7-39.58,5.7A261.06,261.06,0,0,1,144,171.78a60.1,60.1,0,0,0-1,9.74C162.7,183.83,190.92,185.65,207.87,180.27Z" transform="translate(0 0)"/><path class="cls-10" d="M215.76,137.11a29.94,29.94,0,0,0,5.3-10.58,58.06,58.06,0,0,0-7.44-2c-3.24,7.45-9.21,14-11.79,16.68A76.12,76.12,0,0,0,215.76,137.11Z" transform="translate(0 0)"/><path class="cls-10" d="M162.78,218.91a76.68,76.68,0,0,0,17.42-34.15l-2.45,0c-1.29,0-2.59,0-3.89,0-6.07,18.38-15.14,30.06-17.48,32.88C158.45,218.11,160.59,218.55,162.78,218.91Z" transform="translate(0 0)"/><path class="cls-10" d="M213.41,166.62c1.42-3.75,2.73-7.38,3.93-10.86-10.92,6.39-33.54,8-53.5,8-6.28,0-12.29-.16-17.6-.37a59.37,59.37,0,0,0-2.07,7.42C164,173.07,193.47,174.47,213.41,166.62Z" transform="translate(0 0)"/><path class="cls-10" d="M242.92,188a40.87,40.87,0,0,0,17.83,6,58.7,58.7,0,0,0,.92-7.18c-9.93-.67-14.82-4-16.4-5.35Q244.16,184.75,242.92,188Z" transform="translate(0 0)"/><path class="cls-10" d="M258.42,202.71a59.26,59.26,0,0,0,2.15-7.65,43.73,43.73,0,0,1-14.77-4.24C249.66,197.49,256.29,201.54,258.42,202.71Z" transform="translate(0 0)"/><path class="cls-10" d="M244.22,190c-.73-.4-1.3-.75-1.67-1-.63,1.66-1.3,3.36-2,5.07A34.46,34.46,0,0,0,255,210.5,59,59,0,0,0,258,204c0-.1.08-.2.11-.3C255.84,202.47,248.15,197.9,244.22,190Z" transform="translate(0 0)"/><path class="cls-10" d="M189.59,184.38c-2.72.2-5.52.31-8.36.36A78.18,78.18,0,0,1,164,219.09q3.78.57,7.73.8C173.39,218,186.88,202.54,189.59,184.38Z" transform="translate(0 0)"/><path class="cls-10" d="M224.82,131.49c.32-1.16.6-2.24.86-3.23-1.2-.51-2.42-1-3.66-1.41a32.33,32.33,0,0,1-4.36,9.41A26.83,26.83,0,0,0,224.82,131.49Z" transform="translate(0 0)"/><path class="cls-10" d="M261.63,178.56c-8.39-.24-12.47-3-13.89-4.3-.68,2.06-1.38,4.14-2.11,6.26,1,.91,5.74,4.67,16.11,5.38.05-1,.07-2,.07-3C261.81,181.47,261.74,180,261.63,178.56Z" transform="translate(0 0)"/><path class="cls-10" d="M253.22,157.14q-1.09,3.38-2.2,6.86a32,32,0,0,0,8.64,3.14,59.7,59.7,0,0,0-3.47-9.4,21.21,21.21,0,0,1-2.78-1.19C253.35,156.75,253.29,156.94,253.22,157.14Z" transform="translate(0 0)"/><path class="cls-10" d="M255.54,156.42c-.41-.83-.84-1.64-1.29-2.44l-.52,1.6A18.34,18.34,0,0,0,255.54,156.42Z" transform="translate(0 0)"/><path class="cls-10" d="M250.65,165.16c-.83,2.64-1.68,5.32-2.57,8.05.83.82,4.64,4,13.48,4.35a59.48,59.48,0,0,0-1.59-9.32,31.41,31.41,0,0,1-9.26-3.27Z" transform="translate(0 0)"/><path class="cls-10" d="M217.86,154.26c1.49-4.37,2.79-8.47,3.92-12.19-12.66,11.41-49.75,13.62-72.34,13.85a61.34,61.34,0,0,0-2.84,6.42C169.28,163.22,204.68,163,217.86,154.26Z" transform="translate(0 0)"/><path class="cls-10" d="M230.84,232.35a87.73,87.73,0,0,1-9.75-.61c-.09.13-.18.27-.26.41-.71,1.11-1.43,2.23-2.17,3.36-.18.28-.36.56-.55.84-1,1.54-2.07,3.11-3.16,4.69a58.57,58.57,0,0,0,10.93-3.51c.65-.28,1.3-.57,1.94-.87a59.69,59.69,0,0,0,7.47-4.25l.45-.31A46.18,46.18,0,0,1,230.84,232.35Z" transform="translate(0 0)"/><path class="cls-10" d="M231.81,222.22a13.92,13.92,0,0,1-2.31-4.79c-.71,1.3-1.44,2.62-2.2,3.94C228.07,221.56,229.63,221.91,231.81,222.22Z" transform="translate(0 0)"/><path class="cls-10" d="M233,210.71c-.89,1.78-1.83,3.58-2.81,5.42.92,4.06,2.68,5.88,3.13,6.29a62.59,62.59,0,0,0,7.51.41C238.89,221.5,235.88,218.31,233,210.71Z" transform="translate(0 0)"/><path class="cls-10" d="M252.27,156.83c.47-1.43.9-2.77,1.3-4a59.46,59.46,0,0,0-8-10.6c-4.87,20.21-20.22,74.55-49.53,99.86a59.78,59.78,0,0,0,17.48-.73c22-31.77,29.52-55.5,36.16-76.47C250.56,162.13,251.41,159.46,252.27,156.83Z" transform="translate(0 0)"/><path class="cls-10" d="M311.09,145.34a11.94,11.94,0,0,0-6.31,3.15c-1.95,2-3.92,4.8-3.69,5.78a1,1,0,0,0,.41.69,1.15,1.15,0,0,0,.78.1c.06,0,2.23-.64,3.65-.94a2,2,0,0,1,.48-.06,1.91,1.91,0,0,1,1.43.62,2.23,2.23,0,0,1,.27,2.54l-.4.77L296.9,176.81a9.93,9.93,0,0,0-.95,2c-3,10.48-9.25,18.16-12.26,21.84l-.9,1.12a19.06,19.06,0,0,0-1.44,2.14l-31.68,55.16a1.75,1.75,0,0,0-.16,1.38,1.73,1.73,0,0,0,.89,1.07l2.13,1.11a1.77,1.77,0,0,0,2.35-.69l31.61-55a12.79,12.79,0,0,0,1.14-2.37c3.07-9.54,8.85-16.94,11.63-20.49l.92-1.2a18.08,18.08,0,0,0,1.24-1.89l13.48-23.51a10.32,10.32,0,0,0,1-2.5c.48-1.94,1.08-5.49-.3-7.41A4.71,4.71,0,0,0,311.09,145.34Z" transform="translate(0 0)"/><path class="cls-10" d="M244.77,141.33a60.41,60.41,0,0,0-9.24-7.7C231,152.32,215.8,206.3,183.38,239.27A58.84,58.84,0,0,0,195,241.92l-.13-.15C224.63,216.59,240.07,161.05,244.77,141.33Z" transform="translate(0 0)"/><path class="cls-10" d="M240,195.36l-.39.92c-.74,1.77-1.51,3.57-2.33,5.39l0,0c5.26,10.79,12,14.24,13.92,15q1.65-2.38,3.08-4.93l.2-.37A35.48,35.48,0,0,1,240,195.36Z" transform="translate(0 0)"/><path class="cls-10" d="M243,223.78h0c-.82,0-1.62.05-2.39.05a57.83,57.83,0,0,1-13.77-1.55l-.18.31c-.17.31-.36.62-.53.93-1.39,2.37-2.85,4.8-4.4,7.28,2.82.31,10.54,1,15.81,0a60,60,0,0,0,6.11-5.14l1-.94,1.09-1.14Q244.28,223.74,243,223.78Z" transform="translate(0 0)"/><path class="cls-10" d="M236.8,202.79l-.13.3c-1,2.09-2,4.22-3,6.39,4.3,12,8.95,13.21,9.41,13.3,1.17,0,2.38-.13,3.63-.25a60.51,60.51,0,0,0,4-5C248.41,216.56,242,213.06,236.8,202.79Z" transform="translate(0 0)"/><path class="cls-10" d="M187.15,219c1.2-2.63,11.87-26.37,10.71-35.54-2.33.35-4.75.61-7.25.81C188.13,201.53,176.07,216.38,173,220A66.8,66.8,0,0,0,187.15,219Z" transform="translate(0 0)"/><path class="cls-10" d="M142.93,182.52c0,.14,0,.28,0,.43a58.67,58.67,0,0,0,.74,9.34,35.26,35.26,0,0,0,3.21-9.33C145.52,182.82,144.21,182.67,142.93,182.52Z" transform="translate(0 0)"/><path class="cls-10" d="M226.6,128.68c-4.26,16.39-16.54,58-38.6,90.9l-.25.36a152.84,152.84,0,0,1-12.28,16,60.66,60.66,0,0,0,6.86,3c32.69-33,47.93-87.51,52.31-105.85A59.43,59.43,0,0,0,226.6,128.68Z" transform="translate(0 0)"/><path class="cls-10" d="M198.85,183.35c.92,7.14-4.84,22.2-8.35,30.53a253.83,253.83,0,0,0,16.85-32.4A67.62,67.62,0,0,1,198.85,183.35Z" transform="translate(0 0)"/><path class="cls-10" d="M158.37,184a54,54,0,0,1-11.06,21.34,58.32,58.32,0,0,0,3.32,6.84,72,72,0,0,0,13.85-27.78Q161.39,184.22,158.37,184Z" transform="translate(0 0)"/><path class="cls-10" d="M147.86,183.07a36.86,36.86,0,0,1-3.92,10.83,59.37,59.37,0,0,0,2.95,10.38,52.89,52.89,0,0,0,10.47-20.35C154.09,183.68,150.91,183.38,147.86,183.07Z" transform="translate(0 0)"/><path class="cls-10" d="M176,233.87c1.12-1.31,2.22-2.65,3.3-4h-.33a88.47,88.47,0,0,1-15-1.6l.28.24a60.71,60.71,0,0,0,8.93,6.19l1.3.72.09.05.09-.1Z" transform="translate(0 0)"/><path class="cls-10" d="M162.47,227c2.86.58,10.95,2.08,17.57,1.89.6-.76,1.2-1.51,1.78-2.29l1.3-1.74q1.68-2.3,3.28-4.66a66.22,66.22,0,0,1-10.63.85,86.38,86.38,0,0,1-21.24-2.82A59.58,59.58,0,0,0,162.47,227Z" transform="translate(0 0)"/><path class="cls-10" d="M172.81,184.72q-3.66-.09-7.31-.27a73,73,0,0,1-14.34,28.66c.78,1.3,1.6,2.58,2.47,3.82l1.66.43C156.84,215.55,166.43,203.84,172.81,184.72Z" transform="translate(0 0)"/><path d="M316.82,146.63a6.11,6.11,0,0,0-6-2.76,13,13,0,0,0-7.15,3.57c-.77.79-4.61,4.89-4.09,7.17a2.48,2.48,0,0,0,1.11,1.64,2.69,2.69,0,0,0,1.94.26s2.2-.64,3.57-.93c.33-.07.44.06.48.11a.73.73,0,0,1,.07.83l-11.18,19.54a10.54,10.54,0,0,0-1.1,2.32c-2.91,10.18-9,17.7-12,21.31-.37.44-.68.83-.92,1.14a18.71,18.71,0,0,0-1.56,2.31L248.37,258.3a3.28,3.28,0,0,0,1.34,4.54l2.13,1.1a3.26,3.26,0,0,0,4.34-1.27l31.61-55a13.79,13.79,0,0,0,1.27-2.66c3-9.29,8.65-16.54,11.38-20l.94-1.21a22.63,22.63,0,0,0,1.35-2l13.47-23.52a11.36,11.36,0,0,0,1.16-2.88C318,152.6,318.47,148.92,316.82,146.63Zm-.91,8.29a10.32,10.32,0,0,1-1,2.5l-13.48,23.51a18.08,18.08,0,0,1-1.24,1.89l-.92,1.2c-2.78,3.55-8.56,10.95-11.63,20.49a12.79,12.79,0,0,1-1.14,2.37l-31.61,55a1.77,1.77,0,0,1-2.35.69l-2.13-1.11a1.73,1.73,0,0,1-.89-1.07,1.75,1.75,0,0,1,.16-1.38l31.68-55.16a19.06,19.06,0,0,1,1.44-2.14l.9-1.12c3-3.68,9.27-11.36,12.26-21.84a9.93,9.93,0,0,1,.95-2L307.71,158l.4-.77a2.23,2.23,0,0,0-.27-2.54,1.91,1.91,0,0,0-1.43-.62,2,2,0,0,0-.48.06c-1.42.3-3.59.92-3.65.94a1.15,1.15,0,0,1-.78-.1,1,1,0,0,1-.41-.69c-.23-1,1.74-3.77,3.69-5.78a11.94,11.94,0,0,1,6.31-3.15,4.71,4.71,0,0,1,4.52,2.17C317,149.43,316.39,153,315.91,154.92Z" transform="translate(0 0)"/><path d="M256.56,210.77a59.61,59.61,0,0,0,2.94-6.63c.12-.32.23-.64.35-1a59,59,0,0,0,2.22-8c.07-.33.12-.66.18-1a59.51,59.51,0,0,0,.91-7.23c0-.33.06-.66.07-1,0-1,.08-2,.08-3,0-1.47-.07-2.93-.17-4.37,0-.34-.05-.67-.08-1a60.41,60.41,0,0,0-1.5-9.1c-.09-.36-.17-.71-.26-1.06a60.88,60.88,0,0,0-3.19-9.07l-.55-1.21q-1.23-2.61-2.69-5.09l-.69-1.14A61.73,61.73,0,0,0,246,140.46c-.27-.29-.55-.57-.83-.85a61,61,0,0,0-9.27-7.52c-.3-.2-.6-.38-.89-.58a62.43,62.43,0,0,0-8-4.3c-.31-.14-.61-.29-.92-.42-1.2-.51-2.42-1-3.65-1.39l-1-.32a58.67,58.67,0,0,0-7.26-1.92c-.33-.07-.67-.12-1-.18a59.8,59.8,0,0,0-8.08-.91l-1.1,0c-.55,0-1.09,0-1.64,0a62.08,62.08,0,0,0-7.88.52l-1.4.18a60.74,60.74,0,0,0-9.38,2.23l-1.66.56a60.87,60.87,0,0,0-15,7.85,62.35,62.35,0,0,0-6.7,5.54,61.62,61.62,0,0,0-5.71,6.26l-.82,1a60.33,60.33,0,0,0-5.5,8.71q-.28.51-.54,1.05a60.46,60.46,0,0,0-2.72,6.34c-.12.34-.23.69-.35,1a59.88,59.88,0,0,0-2,7.32c-.07.32-.12.65-.18,1a60.1,60.1,0,0,0-1,9.74c0,.33,0,.66,0,1s0,.4,0,.6a61.21,61.21,0,0,0,1.09,11.48l.3,1.46a60.9,60.9,0,0,0,3,9.7c.14.35.27.7.42,1a59.47,59.47,0,0,0,3.4,6.77c.17.3.34.61.52.91.41.67.83,1.33,1.27,2,.28.43.57.86.86,1.28a61.73,61.73,0,0,0,7.81,9.18c.47.45.94.91,1.42,1.35a61.14,61.14,0,0,0,9.29,6.93c.47.29,1,.56,1.44.84l1.29.73.92.47a61.14,61.14,0,0,0,6.71,3l1.05.37a60.72,60.72,0,0,0,20.17,3.44,61.51,61.51,0,0,0,11.1-1l.26-.05a60.62,60.62,0,0,0,15.35-5.1c.61-.3,1.21-.61,1.81-.93a61.08,61.08,0,0,0,6.82-4.23c.43-.31.85-.6,1.27-.92a60.28,60.28,0,0,0,6.65-5.81c.32-.31.62-.64.92-1a61.37,61.37,0,0,0,9.5-13.08C256.22,211.46,256.39,211.11,256.56,210.77ZM255,210.5a34.46,34.46,0,0,1-14.46-16.43c.7-1.71,1.37-3.41,2-5.07.37.24.94.59,1.67,1,3.93,7.91,11.62,12.48,13.85,13.68,0,.1-.07.2-.11.3A59,59,0,0,1,255,210.5Zm3.41-7.79c-2.13-1.17-8.76-5.22-12.62-11.89a43.73,43.73,0,0,0,14.77,4.24A59.26,59.26,0,0,1,258.42,202.71Zm2.33-8.63a40.87,40.87,0,0,1-17.83-6q1.25-3.3,2.35-6.49c1.58,1.33,6.47,4.68,16.4,5.35A58.7,58.7,0,0,1,260.75,194.08Zm-15.12-13.56c.73-2.12,1.43-4.2,2.11-6.26,1.42,1.27,5.5,4.06,13.89,4.3.11,1.45.18,2.91.18,4.39,0,1,0,2-.07,3C251.37,185.19,246.63,181.43,245.63,180.52Zm15.93-3c-8.84-.3-12.65-3.53-13.48-4.35.89-2.73,1.74-5.41,2.57-8.05l.06-.19a31.41,31.41,0,0,0,9.26,3.27A59.48,59.48,0,0,1,261.56,177.56Zm-1.9-10.42A32,32,0,0,1,251,164q1.11-3.48,2.2-6.86c.07-.2.13-.39.19-.59a21.21,21.21,0,0,0,2.78,1.19A59.7,59.7,0,0,1,259.66,167.14Zm-4.12-10.72a18.34,18.34,0,0,1-1.81-.84l.52-1.6C254.7,154.78,255.13,155.59,255.54,156.42Zm-29.86-28.16c-.26,1-.54,2.07-.86,3.23a26.83,26.83,0,0,1-7.16,4.77,32.33,32.33,0,0,0,4.36-9.41C223.26,127.29,224.48,127.75,225.68,128.26Zm-4.62-1.73a29.94,29.94,0,0,1-5.3,10.58,76.12,76.12,0,0,1-13.93,4.15c2.58-2.64,8.55-9.23,11.79-16.68A58.06,58.06,0,0,1,221.06,126.53Zm-8.47-2.13c-3.84,8.61-11.46,16.17-12.54,17.22-3.92.76-8,1.37-12.17,1.84,3.26-2.87,11.82-10.92,16.49-19.91A58.54,58.54,0,0,1,212.59,124.4Zm-10.23-.9.88,0c-5.4,10-15.75,19-17.12,20.14-4.45.47-8.92.81-13.24,1a113.17,113.17,0,0,0,20.3-20.48A59.22,59.22,0,0,1,202.36,123.5Zm-10.67,1c-10.41,13-19.36,19.42-20.64,20.3-3.25.16-6.39.25-9.34.3a68.68,68.68,0,0,0,20.4-18A58.28,58.28,0,0,1,191.69,124.48Zm-11.41,3.29c-9.7,12-19.86,16.9-20.81,17.35l-2.95,0A59.68,59.68,0,0,1,180.28,127.77Zm-24.59,18.42h.4c20.47,0,54.84-1.77,68.24-12.91-.56,2.05-1.21,4.32-2,6.78-10.67,12.05-49,14.48-72.4,14.8A59.81,59.81,0,0,1,155.69,146.19Zm-6.25,9.73c22.59-.23,59.68-2.44,72.34-13.85-1.13,3.72-2.43,7.82-3.92,12.19-13.18,8.75-48.58,9-71.26,8.08A61.34,61.34,0,0,1,149.44,155.92Zm-3.2,7.46c5.31.21,11.32.37,17.6.37,20,0,42.58-1.6,53.5-8-1.2,3.48-2.51,7.11-3.93,10.86-19.94,7.85-49.42,6.45-69.24,4.18A59.37,59.37,0,0,1,146.24,163.38Zm-2.26,8.4a261.06,261.06,0,0,0,29.37,1.79c13.85,0,28.17-1.41,39.58-5.7-1.55,4-3.24,8.19-5.06,12.4-17,5.38-45.17,3.56-64.92,1.25A60.1,60.1,0,0,1,144,171.78Zm33.77,13,2.45,0a76.68,76.68,0,0,1-17.42,34.15c-2.19-.36-4.33-.8-6.4-1.29,2.34-2.82,11.41-14.5,17.48-32.88C175.16,184.76,176.46,184.78,177.75,184.78Zm3.48,0c2.84-.05,5.64-.16,8.36-.36-2.71,18.16-16.2,33.63-17.89,35.51q-3.94-.22-7.73-.8A78.18,78.18,0,0,0,181.23,184.74Zm9.38-.43c2.5-.2,4.92-.46,7.25-.81,1.16,9.17-9.51,32.91-10.71,35.54A66.8,66.8,0,0,1,173,220C176.07,216.38,188.13,201.53,190.61,184.31Zm8.24-1a67.62,67.62,0,0,0,8.5-1.87,253.83,253.83,0,0,1-16.85,32.4C194,205.55,199.77,190.49,198.85,183.35Zm-55.93-.4c0-.15,0-.29,0-.43,1.28.15,2.59.3,3.94.44a35.26,35.26,0,0,1-3.21,9.33A58.67,58.67,0,0,1,142.92,183Zm1,11a36.86,36.86,0,0,0,3.92-10.83c3,.31,6.23.61,9.5.86a52.89,52.89,0,0,1-10.47,20.35A59.37,59.37,0,0,1,143.94,193.9Zm3.37,11.44A54,54,0,0,0,158.37,184q3,.23,6.11.4a72,72,0,0,1-13.85,27.78A58.32,58.32,0,0,1,147.31,205.34Zm3.85,7.77a73,73,0,0,0,14.34-28.66q3.65.18,7.31.27c-6.38,19.12-16,30.83-17.52,32.64l-1.66-.43C152.76,215.69,151.94,214.41,151.16,213.11Zm3.37,5.08A86.38,86.38,0,0,0,175.77,221a66.22,66.22,0,0,0,10.63-.85q-1.6,2.37-3.28,4.66l-1.3,1.74c-.58.78-1.18,1.53-1.78,2.29-6.62.19-14.71-1.31-17.57-1.89A59.58,59.58,0,0,1,154.53,218.19Zm19.93,17.23-1.3-.72a60.71,60.71,0,0,1-8.93-6.19l-.28-.24a88.47,88.47,0,0,0,15,1.6h.33c-1.08,1.35-2.18,2.69-3.3,4l-1.31,1.5-.09.1Zm1,.52a152.84,152.84,0,0,0,12.28-16l.25-.36c22.06-32.93,34.34-74.51,38.6-90.9a59.43,59.43,0,0,1,8,4.38C230.26,151.4,215,206,182.33,238.91A60.66,60.66,0,0,1,175.47,235.94Zm7.91,3.33c32.42-33,47.66-87,52.15-105.64a60.41,60.41,0,0,1,9.24,7.7c-4.7,19.72-20.14,75.26-49.91,100.44l.13.15A58.84,58.84,0,0,1,183.38,239.27Zm19,3.12a59.57,59.57,0,0,1-6.3-.33c29.31-25.31,44.66-79.65,49.53-99.86a59.46,59.46,0,0,1,8,10.6c-.4,1.26-.83,2.6-1.3,4-.86,2.63-1.71,5.3-2.57,8-6.64,21-14.17,44.7-36.16,76.47A59.69,59.69,0,0,1,202.36,242.39Zm27.14-25a13.92,13.92,0,0,0,2.31,4.79c-2.18-.31-3.74-.66-4.51-.85C228.06,220.05,228.79,218.73,229.5,217.43Zm3.83,5c-.45-.41-2.21-2.23-3.13-6.29,1-1.84,1.92-3.64,2.81-5.42,2.87,7.6,5.88,10.79,7.83,12.12A62.59,62.59,0,0,1,233.33,222.42Zm-5.51,14.24c-.64.3-1.29.59-1.94.87A58.57,58.57,0,0,1,215,241c1.09-1.58,2.14-3.15,3.16-4.69.19-.28.37-.56.55-.84.74-1.13,1.46-2.25,2.17-3.36.08-.14.17-.28.26-.41a87.73,87.73,0,0,0,9.75.61,46.18,46.18,0,0,0,4.9-.25l-.45.31A59.69,59.69,0,0,1,227.82,236.66Zm15.78-10.95a60,60,0,0,1-6.11,5.14c-5.27,1-13,.26-15.81,0,1.55-2.48,3-4.91,4.4-7.28.17-.31.36-.62.53-.93l.18-.31a57.83,57.83,0,0,0,13.77,1.55c.77,0,1.57,0,2.39-.05h0q1.32,0,2.7-.15l-1.09,1.14Zm3.06-3.18c-1.25.12-2.46.21-3.63.25-.46-.09-5.11-1.33-9.41-13.3,1.08-2.17,2.09-4.3,3-6.39l.13-.3c5.22,10.27,11.61,13.77,13.87,14.74A60.51,60.51,0,0,1,246.66,222.53Zm4.61-5.85c-1.9-.79-8.66-4.24-13.92-15l0,0c.82-1.82,1.59-3.62,2.33-5.39l.39-.92a35.48,35.48,0,0,0,14.52,16l-.2.37Q252.93,214.3,251.27,216.68Z" transform="translate(0 0)"/><path class="cls-11" d="M122.83,301.91l1.43-1.51a12.39,12.39,0,0,0,9.28,4.27c4.83,0,7.87-2.58,7.87-6.35,0-3.95-2.58-5.21-5.69-6.61l-4.8-2.15c-2.75-1.22-6.42-3.19-6.42-7.87s3.94-7.8,9.2-7.8a12.14,12.14,0,0,1,8.82,3.79l-1.28,1.47a10.1,10.1,0,0,0-7.54-3.25c-4.17,0-7,2.23-7,5.65,0,3.7,3.16,5.09,5.47,6.11l4.79,2.13c3.54,1.58,6.66,3.54,6.66,8.37s-4,8.52-10.12,8.52A13.91,13.91,0,0,1,122.83,301.91Z" transform="translate(0 0)"/><path class="cls-11" d="M150.28,274.47h17.31v1.9h-15.1v12h12.68v1.9H152.49V304.2h15.58v1.9H150.28Z" transform="translate(0 0)"/><path class="cls-11" d="M175,274.47h2.21V304.2h14.57v1.9H175Z" transform="translate(0 0)"/><path class="cls-11" d="M197.42,274.47h17.31v1.9H199.62v12h12.69v1.9H199.62V304.2h15.59v1.9H197.42Z" transform="translate(0 0)"/><path class="cls-11" d="M220.1,290.22c0-10,5.47-16.33,13.52-16.33a10.92,10.92,0,0,1,8.23,3.79l-1.3,1.47a9,9,0,0,0-6.91-3.25c-6.93,0-11.23,5.52-11.23,14.3s4.25,14.47,11.05,14.47c3.26,0,5.7-1.33,8-3.89l1.3,1.38a11.73,11.73,0,0,1-9.41,4.52C225.54,306.68,220.1,300.28,220.1,290.22Z" transform="translate(0 0)"/><path class="cls-11" d="M249.21,274.47h9c6.29,0,10.41,2.3,10.41,8.35,0,5.77-4.12,8.76-10.41,8.76h-6.83V306.1h-2.21Zm8.46,15.24c5.6,0,8.71-2.21,8.71-6.89s-3.11-6.49-8.71-6.49h-6.25v13.38Zm.09,1.22,2.11-.63,9.39,15.8H266.7Z" transform="translate(0 0)"/><path class="cls-11" d="M273.28,290.19c0-10,5.43-16.3,13-16.3s13,6.29,13,16.3-5.43,16.49-13,16.49S273.28,300.2,273.28,290.19Zm23.75,0c0-8.78-4.3-14.29-10.72-14.29s-10.71,5.51-10.71,14.29,4.29,14.48,10.71,14.48S297,299,297,290.19Z" transform="translate(0 0)"/></g></svg>