<?xml version="1.0" standalone="no"?>
<!DOCTYPE svg PUBLIC "-//W3C//DTD SVG 20010904//EN"
 "http://www.w3.org/TR/2001/REC-SVG-20010904/DTD/svg10.dtd">
<svg version="1.0" xmlns="http://www.w3.org/2000/svg"
 width="417.000000pt" height="417.000000pt" viewBox="0 0 417.000000 417.000000"
 preserveAspectRatio="xMidYMid meet">
<metadata>
Created by potrace 1.16, written by Peter Selinger 2001-2019
</metadata>
<g transform="translate(0.000000,417.000000) scale(0.100000,-0.100000)"
fill="#000000" stroke="none">
<path d="M1925 3300 c-156 -22 -319 -77 -450 -153 -296 -170 -509 -461 -587
-799 -29 -127 -31 -374 -5 -498 56 -260 172 -467 363 -650 231 -221 513 -333
839 -333 255 0 500 77 705 221 83 59 233 209 292 292 256 363 294 857 96 1250
-63 124 -112 194 -208 294 -182 190 -393 308 -645 361 -92 20 -312 28 -400 15z
m397 -140 c434 -95 777 -460 848 -903 20 -121 8 -339 -24 -456 -105 -377 -401
-673 -776 -776 -118 -33 -336 -45 -457 -25 -574 91 -988 628 -924 1196 51 455
363 825 798 949 48 14 120 29 158 34 96 13 270 4 377 -19z"/>
</g>
</svg>
