<?xml version="1.0" standalone="no"?>
<!DOCTYPE svg PUBLIC "-//W3C//DTD SVG 20010904//EN"
 "http://www.w3.org/TR/2001/REC-SVG-20010904/DTD/svg10.dtd">
<svg version="1.0" xmlns="http://www.w3.org/2000/svg"
 width="417.000000pt" height="417.000000pt" viewBox="0 0 417.000000 417.000000"
 preserveAspectRatio="xMidYMid meet">
<metadata>
Created by potrace 1.16, written by Peter Selinger 2001-2019
</metadata>
<g transform="translate(0.000000,417.000000) scale(0.100000,-0.100000)"
fill="#000000" stroke="none">
<path d="M1980 2894 c-14 -2 -56 -9 -95 -15 -288 -47 -558 -236 -674 -474 -56
-112 -74 -190 -75 -315 0 -128 18 -202 79 -327 101 -206 313 -370 580 -449
121 -35 354 -45 489 -20 344 65 614 281 712 571 21 63 28 104 32 195 5 144
-11 220 -75 350 -40 82 -61 109 -148 196 -145 147 -293 226 -500 269 -78 16
-276 28 -325 19z"/>
</g>
</svg>
