<?xml version="1.0" standalone="no"?>
<!DOCTYPE svg PUBLIC "-//W3C//DTD SVG 20010904//EN"
 "http://www.w3.org/TR/2001/REC-SVG-20010904/DTD/svg10.dtd">
<svg version="1.0" xmlns="http://www.w3.org/2000/svg"
 width="417.000000pt" height="417.000000pt" viewBox="0 0 417.000000 417.000000"
 preserveAspectRatio="xMidYMid meet">
<metadata>
Created by potrace 1.16, written by Peter Selinger 2001-2019
</metadata>
<g transform="translate(0.000000,417.000000) scale(0.100000,-0.100000)"
fill="#000000" stroke="none">
<path d="M1016 3651 c-3 -20 -6 -48 -6 -63 0 -25 4 -28 33 -28 18 0 228 -11
467 -25 239 -14 445 -25 458 -25 l22 0 0 -1510 0 -1510 90 0 90 0 0 1506 0
1506 63 -6 c34 -4 233 -15 442 -26 209 -11 401 -22 427 -24 l46 -5 4 61 c2 35
-1 62 -7 64 -5 1 -467 28 -1025 58 -558 31 -1034 57 -1056 60 -41 3 -42 3 -48
-33z"/>
</g>
</svg>
