<?xml version="1.0" standalone="no"?>
<!DOCTYPE svg PUBLIC "-//W3C//DTD SVG 20010904//EN"
 "http://www.w3.org/TR/2001/REC-SVG-20010904/DTD/svg10.dtd">
<svg version="1.0" xmlns="http://www.w3.org/2000/svg"
 width="417.000000pt" height="417.000000pt" viewBox="0 0 417.000000 417.000000"
 preserveAspectRatio="xMidYMid meet">
<metadata>
Created by potrace 1.16, written by Peter Selinger 2001-2019
</metadata>
<g transform="translate(0.000000,417.000000) scale(0.100000,-0.100000)"
fill="#000000" stroke="none">
<path d="M967 3232 l-77 -37 115 -242 c63 -134 115 -245 115 -248 0 -2 -109
-6 -242 -7 l-243 -3 -3 -77 -3 -78 287 -2 287 -3 386 -817 386 -817 100 0 100
0 384 819 384 820 293 0 294 0 0 80 0 80 -255 2 -255 3 115 244 c63 134 115
245 115 247 0 4 -153 74 -156 72 -1 -2 -62 -130 -135 -285 l-132 -283 -271 -2
-271 -3 -3 -77 -3 -78 235 -2 235 -3 -333 -710 c-184 -390 -337 -709 -342
-708 -8 1 -674 1401 -674 1415 0 5 92 8 205 8 l205 0 0 80 0 80 -247 0 -248 1
-94 202 c-52 111 -113 239 -135 284 l-41 82 -78 -37z"/>
</g>
</svg>
