<?xml version="1.0" standalone="no"?>
<!DOCTYPE svg PUBLIC "-//W3C//DTD SVG 20010904//EN"
 "http://www.w3.org/TR/2001/REC-SVG-20010904/DTD/svg10.dtd">
<svg version="1.0" xmlns="http://www.w3.org/2000/svg"
 width="418.000000pt" height="417.000000pt" viewBox="0 0 418.000000 417.000000"
 preserveAspectRatio="xMidYMid meet">
<metadata>
Created by potrace 1.16, written by Peter Selinger 2001-2019
</metadata>
<g transform="translate(0.000000,417.000000) scale(0.100000,-0.100000)"
fill="#000000" stroke="none">
<path d="M1975 3218 c-13 -29 -186 -397 -384 -818 l-359 -765 -296 -3 -296 -2
0 -75 0 -75 255 0 c145 0 255 -4 255 -9 0 -5 -51 -119 -114 -253 l-115 -243
77 -37 c42 -20 78 -35 80 -33 2 2 64 131 137 287 l133 283 271 3 271 2 0 75 0
75 -231 0 c-215 0 -231 1 -227 18 9 31 661 1412 667 1412 7 -1 660 -1378 668
-1410 5 -20 0 -20 -201 -20 l-206 0 0 -75 0 -75 247 -2 247 -3 85 -180 c47
-99 109 -228 136 -287 l51 -106 74 34 c41 19 76 36 78 38 1 2 -49 114 -112
248 -64 134 -116 247 -116 251 0 4 110 7 245 7 l245 0 0 75 0 75 -284 0 -284
0 -388 820 -388 820 -99 0 -98 0 -24 -52z"/>
</g>
</svg>
